# File produced by Open Asset Import Library (http://www.assimp.sf.net)
# (assimp v3.1.113183908)

mtllib banner%201.mtl

# vertex positions
v -5.477007 0.362516 6.524482
v -5.283812 0.312688 6.524482
v -4.353335 3.920403 6.524482
v -4.546530 3.970230 6.524482
v -4.353335 3.920403 -6.524482
v -4.546530 3.970230 -6.524482
v -5.283812 0.312688 -6.524482
v -5.477007 0.362516 -6.524482
v -3.526190 0.303756 6.524482
v -3.331770 0.348565 6.524482
v -4.168527 3.979162 6.524482
v -4.362947 3.934353 6.524482
v -4.168527 3.979162 -6.524482
v -4.362947 3.934353 -6.524482
v -3.331770 0.348565 -6.524482
v -3.526190 0.303756 -6.524482

# UV coordinates
vt 0.030800 0.008396
vt 0.034017 0.000000
vt 0.190797 0.060080
vt 0.187579 0.068475
vt 0.390132 0.752515
vt 0.393509 0.744183
vt 0.938485 0.965053
vt 0.935107 0.973386
vt 0.061600 0.008396
vt 0.064817 0.000000
vt 0.221596 0.060080
vt 0.218379 0.068475
vt 0.287465 0.779128
vt 0.290843 0.770796
vt 0.835819 0.991667
vt 0.832442 1.000000
vt 0.046200 0.659914
vt 0.615420 0.512360
vt 0.657550 0.674886
vt 0.088330 0.822439
vt 0.000000 0.147559
vt 0.569220 0.000006
vt 0.611350 0.162531
vt 0.042130 0.310085
vt 0.092400 0.008396
vt 0.095617 0.000000
vt 0.252396 0.060080
vt 0.249179 0.068475
vt 0.410665 0.747193
vt 0.414042 0.738860
vt 0.959018 0.959731
vt 0.955641 0.968064
vt 0.000000 0.008396
vt 0.003217 0.000000
vt 0.159997 0.060080
vt 0.156780 0.068475
vt 0.826602 0.269448
vt 0.834935 0.272825
vt 0.614063 0.817802
vt 0.605731 0.814425
vt 0.000000 0.497113
vt 0.569220 0.349559
vt 0.611350 0.512085
vt 0.042130 0.659638
vt 0.000000 0.322336
vt 0.569220 0.174782
vt 0.611350 0.337308
vt 0.042130 0.484861

# vertex normals
vn -0.000003 0.000000 1.000000
vn -0.000003 0.000000 1.000000
vn 0.249741 0.968313 0.000000
vn -0.000003 0.000000 -1.000000
vn -0.000003 0.000000 -1.000000
vn -0.249740 -0.968313 0.000000
vn 0.968313 -0.249741 0.000000
vn -0.968313 0.249741 0.000000
vn -0.000003 0.000000 1.000000
vn -0.224585 0.974454 0.000000
vn -0.000003 0.000000 -1.000000
vn -0.000003 0.000000 -1.000000
vn -0.000003 0.000000 -1.000000
vn 0.224587 -0.974454 0.000000
vn 0.974454 0.224586 0.000000
vn -0.974454 -0.224586 0.000000

# Mesh
g pCube6
usemtl standardSurface1
f 4/4/2 1/1/1 2/2/2
f 2/2/2 3/3/2 4/4/2
f 6/8/3 4/5/3 3/6/3
f 3/6/3 5/7/3 6/8/3
f 8/12/5 6/9/4 5/10/4
f 5/10/4 7/11/4 8/12/5
f 1/16/6 8/13/6 7/14/6
f 7/14/6 2/15/6 1/16/6
f 3/20/7 2/17/7 7/18/7
f 7/18/7 5/19/7 3/20/7
f 6/24/8 8/21/8 1/22/8
f 1/22/8 4/23/8 6/24/8
f 12/28/9 9/25/9 10/26/9
f 10/26/9 11/27/9 12/28/9
f 14/32/10 12/29/10 11/30/10
f 11/30/10 13/31/10 14/32/10
f 16/36/13 14/33/11 13/34/12
f 13/34/12 15/35/12 16/36/13
f 9/40/14 16/37/14 15/38/14
f 15/38/14 10/39/14 9/40/14
f 11/44/15 10/41/15 15/42/15
f 15/42/15 13/43/15 11/44/15
f 14/48/16 16/45/16 9/46/16
f 9/46/16 12/47/16 14/48/16
